# xmcd
# 
# Track frame offsets:
#     183
#     20080
#     31228
#     44203
#     57383
#     72468
#     89623
#     108645
#     124543
#     143750
#     154630
#     172358
#     184968
#     205678
#     219473
#     233383
#     244073
#     261073
#     274318
#     295543
# 
# Disc length: 4480
# 
# Revision: 4
# Processed by: cddbd v1.5.2PL0 Copyright (c) Steve Scherf et al.
# Submitted via: BonkEnc v1.0.8
# 
DISCID=32117e14
DTITLE=John Mayall - London Blues CD 2
DYEAR=1992
DGENRE=Blues
TTITLE0=All My Life
TTITLE1=Ridin' On The L and N
TTITLE2=Eagle Eye
TTITLE3=It Hurts Me Too
TTITLE4=Double Trouble
TTITLE5=Sonny Boy Blow
TTITLE6=Broken Wings
TTITLE7=Oh, Pretty Woman
TTITLE8=The Death Of J.B. Lenoir
TTITLE9=Man Of Stone
TTITLE10=Checkin' On My Baby
TTITLE11=Suspicions (Part One)
TTITLE12=Jenny
TTITLE13=Picture On The Wall
TTITLE14=No Reply
TTITLE15=She's Too Young
TTITLE16=Sandy
TTITLE17=Walking On Sunset
TTITLE18=The Bear
TTITLE19=Fly Tomorrow
EXTD=
EXTT0=
EXTT1=
EXTT2=
EXTT3=
EXTT4=
EXTT5=
EXTT6=
EXTT7=
EXTT8=
EXTT9=
EXTT10=
EXTT11=
EXTT12=
EXTT13=
EXTT14=
EXTT15=
EXTT16=
EXTT17=
EXTT18=
EXTT19=
PLAYORDER=
